<svg xmlns="http://www.w3.org/2000/svg" aria-hidden="true" style="position:absolute;width:0;height:0;overflow:hidden"><defs><symbol id="icon-linkedin" viewBox="0 0 32 32"><path d="M31.992 32v-.001H32V20.263c0-5.741-1.236-10.164-7.948-10.164-3.227 0-5.392 1.771-6.276 3.449h-.093v-2.913h-6.364v21.364h6.627V21.42c0-2.785.528-5.479 3.977-5.479 3.399 0 3.449 3.179 3.449 5.657v10.401h6.62zM.528 10.636h6.635V32H.528V10.636zM3.843 0C1.722 0 0 1.721 0 3.843s1.721 3.879 3.843 3.879c2.121 0 3.843-1.757 3.843-3.879A3.846 3.846 0 0 0 3.843 0z"/></symbol><symbol id="icon-facebook" viewBox="0 0 32 32"><path d="M21.329 5.313h2.921V.225C23.746.156 22.013 0 19.994 0c-4.212 0-7.097 2.649-7.097 7.519V12H8.249v5.688h4.648V32h5.699V17.689h4.46l.708-5.688h-5.169V8.082c.001-1.644.444-2.769 2.735-2.769z"/></symbol><symbol id="icon-twitter" viewBox="0 0 32 32"><path d="M32 6.078c-1.19.522-2.458.868-3.78 1.036a6.523 6.523 0 0 0 2.886-3.626 13.11 13.11 0 0 1-4.16 1.588A6.574 6.574 0 0 0 22.154 3c-3.632 0-6.556 2.948-6.556 6.562 0 .52.044 1.02.152 1.496-5.454-.266-10.28-2.88-13.522-6.862a6.605 6.605 0 0 0-.898 3.316 6.57 6.57 0 0 0 2.914 5.452 6.479 6.479 0 0 1-2.964-.808v.072c0 3.188 2.274 5.836 5.256 6.446a6.548 6.548 0 0 1-1.72.216 5.8 5.8 0 0 1-1.242-.112c.85 2.598 3.262 4.508 6.13 4.57a13.182 13.182 0 0 1-8.134 2.798c-.538 0-1.054-.024-1.57-.09A18.469 18.469 0 0 0 10.064 29c12.072 0 18.672-10 18.672-18.668 0-.29-.01-.57-.024-.848A13.087 13.087 0 0 0 32 6.078z"/></symbol><symbol id="icon-instagram" viewBox="0 0 32 32"><path d="M31.969 9.408c-.075-1.7-.35-2.869-.744-3.882a7.803 7.803 0 0 0-1.85-2.838A7.867 7.867 0 0 0 26.543.844C25.524.45 24.361.175 22.661.1 20.948.019 20.404 0 16.06 0s-4.888.019-6.595.094c-1.7.075-2.869.35-3.882.744a7.803 7.803 0 0 0-2.838 1.85A7.867 7.867 0 0 0 .901 5.52C.507 6.539.232 7.702.157 9.402c-.081 1.713-.1 2.257-.1 6.601s.019 4.888.094 6.595c.075 1.7.35 2.869.744 3.882a7.895 7.895 0 0 0 1.85 2.838 7.867 7.867 0 0 0 2.832 1.844c1.019.394 2.182.669 3.882.744 1.706.075 2.25.094 6.595.094s4.888-.018 6.595-.094c1.7-.075 2.869-.35 3.882-.744a8.181 8.181 0 0 0 4.682-4.682c.394-1.019.669-2.182.744-3.882.075-1.707.094-2.251.094-6.595s-.006-4.888-.081-6.595zm-2.882 13.065c-.069 1.563-.331 2.407-.55 2.969a5.307 5.307 0 0 1-3.038 3.038c-.563.219-1.413.481-2.969.55-1.688.075-2.194.094-6.464.094s-4.782-.018-6.464-.094c-1.563-.069-2.407-.331-2.969-.55a4.926 4.926 0 0 1-1.838-1.194 4.974 4.974 0 0 1-1.194-1.838c-.219-.563-.481-1.413-.55-2.969-.075-1.688-.094-2.194-.094-6.464s.019-4.782.094-6.464c.069-1.563.331-2.407.55-2.969a4.868 4.868 0 0 1 1.2-1.838A4.974 4.974 0 0 1 6.639 3.55c.563-.219 1.413-.481 2.969-.55 1.688-.075 2.194-.094 6.464-.094 4.276 0 4.782.019 6.464.094 1.563.069 2.407.331 2.969.55a4.914 4.914 0 0 1 1.838 1.194 4.974 4.974 0 0 1 1.194 1.838c.219.563.481 1.413.55 2.969.075 1.688.094 2.194.094 6.464s-.019 4.77-.094 6.457z"/><path d="M16.059 7.782c-4.538 0-8.22 3.682-8.22 8.22s3.682 8.22 8.22 8.22 8.22-3.682 8.22-8.22-3.682-8.22-8.22-8.22zm0 13.553a5.333 5.333 0 0 1 0-10.664 5.333 5.333 0 0 1 0 10.664zM26.524 7.457a1.919 1.919 0 1 1-3.838 0 1.919 1.919 0 0 1 3.838 0z"/></symbol><symbol id="icon-Client-6" viewBox="0 0 61 32"><path d="M31.102 15.797a1.066 1.066 0 0 1-.221-.728v.003-1.05c0-.322.073-.567.219-.734s.397-.251.753-.25c.335 0 .572.071.712.214a.87.87 0 0 1 .21.628v.247h-.598v-.25a1.34 1.34 0 0 0-.017-.245.235.235 0 0 0-.085-.145.344.344 0 0 0-.191-.057l-.027.001h.001l-.026-.001a.37.37 0 0 0-.203.061l.001-.001a.285.285 0 0 0-.099.158v.002a1.195 1.195 0 0 0-.024.239v.022-.001 1.275a.647.647 0 0 0 .078.361l-.002-.003a.286.286 0 0 0 .117.086l.002.001a.338.338 0 0 0 .155.02.327.327 0 0 0 .212-.058.26.26 0 0 0 .089-.153v-.002c.014-.084.02-.17.019-.255v-.259h.598v.236l.002.062a.961.961 0 0 1-.21.6l.001-.002c-.137.156-.371.234-.716.234s-.604-.083-.752-.256zm2.489.011c-.151-.164-.227-.402-.227-.717v-1.105c0-.312.076-.548.227-.708s.404-.24.758-.239c.352 0 .603.08.754.239.151.16.228.396.228.708v1.105c0 .312-.077.551-.23.716s-.404.247-.752.247-.605-.083-.758-.245zm1.037-.265a.62.62 0 0 0 .072-.327v-1.353l.001-.035a.596.596 0 0 0-.074-.288l.002.003a.29.29 0 0 0-.12-.088l-.002-.001a.316.316 0 0 0-.159-.018h.002c-.012-.002-.026-.002-.041-.002a.34.34 0 0 0-.12.022l.002-.001a.296.296 0 0 0-.123.088v.001a.585.585 0 0 0-.072.321v1.359a.6.6 0 0 0 .072.327.384.384 0 0 0 .126.081.422.422 0 0 0 .311-.001l-.003.001a.384.384 0 0 0 .126-.081v-.007zm1.422-2.472h.644l.484 2.038.495-2.038h.627l.063 2.942H37.9l-.049-2.044-.478 2.044h-.371l-.495-2.052-.046 2.052h-.468l.058-2.942zm3.035 0h1.003c.577 0 .867.279.867.835 0 .533-.304.8-.912.799h-.342v1.307h-.619l.004-2.942zm.856 1.258a.466.466 0 0 0 .34-.094.476.476 0 0 0 .089-.332l.001-.034a.908.908 0 0 0-.032-.24l.001.006a.231.231 0 0 0-.046-.081.277.277 0 0 0-.077-.059l-.001-.001a.634.634 0 0 0-.243-.048l-.035.001h.002-.24v.879h.24zm1.906-1.258h.665l.682 2.942h-.577l-.135-.678h-.593l-.139.678h-.585l.682-2.942zm.568 1.923-.231-1.235-.232 1.235h.463zm1.33-1.923h.433l.829 1.678v-1.678h.514v2.942h-.412l-.835-1.752v1.752h-.531l.001-2.942zm2.98 1.821-.689-1.816h.581l.421 1.167.395-1.167h.568l-.681 1.816v1.121h-.594v-1.121zM32.057 17.3v.154h-.505v1.195h-.211v-1.195h-.508V17.3h1.224zm1.584 1.349h-.168a.071.071 0 0 1-.041-.013.071.071 0 0 1-.027-.03l-.146-.32h-.701l-.146.32a.084.084 0 0 1-.022.036.075.075 0 0 1-.042.013h-.167l.619-1.349h.216l.626 1.344zm-1.025-.501h.584l-.247-.549a.837.837 0 0 1-.044-.12l-.002-.007-.023.072-.023.057-.245.548zm2.092.368a.659.659 0 0 0 .215-.016.666.666 0 0 0 .094-.026l-.005.002.083-.033v-.303h-.251a.088.088 0 0 1-.016-.002.053.053 0 0 1-.015-.008.024.024 0 0 1-.009-.011.027.027 0 0 1-.003-.012v-.106h.48v.517a.913.913 0 0 1-.255.109l-.007.001a1.172 1.172 0 0 1-.155.028 1.686 1.686 0 0 1-.181.009h-.007a.94.94 0 0 1-.311-.053l.007.002a.763.763 0 0 1-.249-.142l.001.001a.664.664 0 0 1-.158-.21l-.002-.004a.663.663 0 0 1-.057-.271V17.97c0-.099.02-.193.057-.278l-.002.005c.036-.08.09-.153.16-.214s.155-.108.247-.14c.106-.035.219-.051.332-.05.058 0 .115.004.172.012a.874.874 0 0 1 .271.087.805.805 0 0 1 .108.071l-.059.084a.05.05 0 0 1-.02.018.064.064 0 0 1-.028.007.074.074 0 0 1-.039-.011.62.62 0 0 1-.064-.034l.004.002a.522.522 0 0 0-.079-.035l-.004-.001a.749.749 0 0 0-.109-.029l-.005-.001a.978.978 0 0 0-.149-.012h-.016a.745.745 0 0 0-.237.039l.005-.002a.525.525 0 0 0-.182.107.448.448 0 0 0-.115.167.626.626 0 0 0 .001.454l-.001-.004a.484.484 0 0 0 .124.17.54.54 0 0 0 .181.107.722.722 0 0 0 .245.027zm1.973-.021h.676v.154h-.883V17.3h.212l-.005 1.195zm1.38.154h-.212V17.3h.212v1.349zm.787-1.343a.11.11 0 0 1 .032.025l.905 1.017-.001-.024.001-.025v.001-1.005h.184v1.355h-.114a.106.106 0 0 1-.04-.008h.001a.12.12 0 0 1-.033-.025l-.904-1.016v1.049h-.177v-1.349h.11c.012 0 .024.002.035.006zm2.681-.006v.148h-.751v.445h.608v.143h-.608v.46h.751v.148h-.968v-1.346h.968zM19.344 8.967l9.401 2.303v8.071l-9.401-2.302V8.966zm-.603-.688v9.152l10.605 2.599v-9.151l-10.605-2.6z"/><path d="m24.425 24.279-10.607-2.601v-9.151l10.607 2.6v9.153zM18.916 8.863l9.278 2.274-3.945 3.406-9.28-2.276 3.947-3.404zm-.175-.584-4.923 4.247 10.607 2.6 4.921-4.247-10.605-2.6zm6.281 15.485 4.324-3.732-4.325-1.061v4.793z"/></symbol><symbol id="icon-Client-5" viewBox="0 0 61 32"><path d="M21.379 21.954c.089.1.137.224.135.352.004.083-.012.167-.048.244s-.091.145-.16.201a.965.965 0 0 1-.608.162h.003-1.064v-2.23h1.042a.963.963 0 0 1 .581.15l-.004-.002c.068.051.121.115.156.187s.051.151.047.23a.484.484 0 0 1-.121.341.581.581 0 0 1-.313.174l-.004.001a.62.62 0 0 1 .359.191zm-1.248-.337h.445a.452.452 0 0 0 .283-.074.278.278 0 0 0 .076-.097l.001-.002a.237.237 0 0 0 .02-.097l-.001-.023v.001l.001-.019a.26.26 0 0 0-.021-.101l.001.002a.263.263 0 0 0-.074-.099.459.459 0 0 0-.255-.076c-.013 0-.025 0-.038.002h.002-.439v.585zm.772.855a.265.265 0 0 0 .081-.101l.001-.002a.247.247 0 0 0 .024-.107l-.001-.018v.001-.016a.25.25 0 0 0-.026-.112l.001.002a.277.277 0 0 0-.083-.102h-.001a.494.494 0 0 0-.273-.082l-.031.001h.001-.468v.613h.473a.515.515 0 0 0 .299-.077zm2.606.441-.58-.872h-.218v.871h-.498v-2.23h.944l.068-.002c.221 0 .426.072.592.194l-.003-.002c.132.121.212.281.224.45s-.042.337-.154.473a.793.793 0 0 1-.45.227l.617.891h-.542zm-.798-1.176h.408c.283 0 .425-.113.425-.338l.001-.018a.316.316 0 0 0-.024-.119l.001.002a.328.328 0 0 0-.081-.115.475.475 0 0 0-.281-.092l-.042.002h.002-.413l.005.679zm3.523.727h-.994l-.176.449h-.523l.913-2.205h.565l.909 2.205h-.523l-.172-.449zm-.133-.338-.363-.941-.363.941h.726zm3.544.787h-.495l-1.11-1.516v1.516h-.494v-2.23h.494l1.109 1.525v-1.525h.495v2.23zm2.824-.534c-.108.172-.26.307-.441.391l-.006.003a1.589 1.589 0 0 1-.696.14h-.881v-2.23h.881l.041-.001c.237 0 .462.051.665.142l-.01-.004c.189.086.345.222.448.389a1.19 1.19 0 0 1-.003 1.176l.003-.006zm-.566-.054a.77.77 0 0 0 .219-.532.77.77 0 0 0-.219-.532.92.92 0 0 0-.623-.19h.003-.344v1.444h.344a.916.916 0 0 0 .621-.191l-.002.002zM26.544 8.279s6.388 2.171 6.252 5.313v5.314s-6.383-2.172-6.251-5.314l-.003-5.313zm11.943 9.383a9.366 9.366 0 0 1 4.059-1.347v-1.664c-1.679.583-3.102 1.638-4.059 3.01z"/><path d="M37.762 18.163c.987-1.79 2.699-3.171 4.783-3.86V9.51s-9.097 3.093-8.905 7.567v7.566s.405-.138 1.043-.398c0-.242 0-.486.029-.731.188-2.077 1.285-4.002 3.049-5.351z"/><path d="M36.897 20.973a7.108 7.108 0 0 1 .319-1.549c-1.099 1.165-1.764 2.611-1.903 4.134-.013.144-.02.287-.024.436a25.839 25.839 0 0 0 1.901-.902l-.151.072a7.12 7.12 0 0 1-.139-2.219l-.002.028zm.362.028a6.8 6.8 0 0 0 .12 2.028l-.008-.044c2.485-1.339 5.278-3.407 5.171-5.908v-.218c-1.776.179-3.437.878-4.729 1.989a6.665 6.665 0 0 0-.552 2.126l-.002.027z"/></symbol><symbol id="icon-Client-4" viewBox="0 0 61 32"><path d="M20.392 13.643h-.001c-.867 0-1.571.634-1.571 1.416v.001c0 .782.704 1.416 1.571 1.416h.001c.868 0 1.571-.634 1.571-1.416v-.001c0-.782-.703-1.416-1.571-1.416zm11.594-.453c-.002-1.087-.482-2.127-1.334-2.896s-2.007-1.201-3.212-1.203c-1.205.002-2.36.435-3.213 1.203s-1.332 1.81-1.335 2.896v5.991s9.092-.913 9.093-5.989v-.001zm-16.35 7.957c.002.756.336 1.48.929 2.015s1.396.836 2.235.838c.838-.002 1.641-.303 2.234-.838s.927-1.258.929-2.015v-4.168s-6.327.635-6.327 4.167zm3.164.747a.893.893 0 0 1-.46-.126.768.768 0 0 1-.303-.331l-.002-.005a.667.667 0 0 1-.046-.436l-.001.005a.733.733 0 0 1 .226-.382l.001-.001a.86.86 0 0 1 .419-.204l.005-.001c.16-.029.327-.014.479.043s.281.152.372.275a.696.696 0 0 1-.101.945.862.862 0 0 1-.263.161l-.006.002a.894.894 0 0 1-.317.057h-.001v-.003zm5.785-1.343v1.551h-.32v-1.551h.32zm.618.662v.249h-.705v-.249h.705zm.074-.662v.25h-.779v-.25h.78zm1.46.739v.073a.973.973 0 0 1-.048.317.703.703 0 0 1-.136.241l.001-.001a.59.59 0 0 1-.209.15.653.653 0 0 1-.258.052h-.01a.666.666 0 0 1-.267-.052.598.598 0 0 1-.208-.15v-.001a.697.697 0 0 1-.136-.235l-.001-.005a.977.977 0 0 1-.048-.303v-.015.001-.073c0-.119.016-.224.048-.317a.722.722 0 0 1 .136-.241l-.001.001c.059-.066.128-.116.209-.151s.17-.052.268-.052.187.017.267.052.151.085.209.151a.687.687 0 0 1 .136.24.946.946 0 0 1 .049.317zm-.323.074v-.076a.936.936 0 0 0-.022-.217.468.468 0 0 0-.067-.16l.001.002a.29.29 0 0 0-.105-.095l-.002-.001a.295.295 0 0 0-.137-.033h-.006a.306.306 0 0 0-.144.033.292.292 0 0 0-.105.095l-.001.001a.466.466 0 0 0-.064.155l-.001.003a.924.924 0 0 0-.022.204v.014-.001.076c0 .082.007.154.022.217s.037.115.066.159a.29.29 0 0 0 .251.13.285.285 0 0 0 .249-.129l.001-.001a.514.514 0 0 0 .065-.159.931.931 0 0 0 .022-.204v-.014.001zm1.361.332v-.003a.22.22 0 0 0-.013-.073v.001a.147.147 0 0 0-.044-.062.374.374 0 0 0-.09-.055l-.003-.001a1.134 1.134 0 0 0-.145-.055l-.009-.002a1.762 1.762 0 0 1-.213-.082l.012.005a.888.888 0 0 1-.168-.1l.002.001a.467.467 0 0 1-.112-.131l-.001-.002a.36.36 0 0 1-.041-.168V20.956c0-.063.016-.121.044-.173l-.001.002a.396.396 0 0 1 .119-.136.567.567 0 0 1 .181-.089.843.843 0 0 1 .231-.031c.114 0 .214.021.299.062s.151.098.198.169a.44.44 0 0 1 .071.246h-.317v-.005a.245.245 0 0 0-.029-.115l.001.001a.195.195 0 0 0-.084-.082h-.001a.298.298 0 0 0-.132-.03h-.012.001-.011a.332.332 0 0 0-.13.026l.002-.001a.177.177 0 0 0-.083.067v.001a.165.165 0 0 0-.027.091v.003c0 .026.006.05.019.071a.207.207 0 0 0 .059.059h.001c.026.019.058.036.097.052s.083.032.133.048c.085.025.159.054.223.086s.119.068.162.108a.396.396 0 0 1 .131.307v.015c0 .123-.06.233-.153.301l-.001.001c-.049.037-.109.065-.178.084a.869.869 0 0 1-.458-.001.692.692 0 0 1-.206-.094l.002.002a.484.484 0 0 1-.144-.155l-.001-.002a.457.457 0 0 1-.054-.227h.321c0 .048.007.089.022.123s.036.06.062.08c.028.02.061.036.096.044h.002c.038.009.08.014.125.014h.012a.354.354 0 0 0 .127-.024l-.002.001a.169.169 0 0 0 .107-.157v-.002zm1.23-1.145v1.551h-.319v-1.551h.319zm.478 0v.25h-1.265v-.25h1.265zm1.222 1.302v.249h-.825v-.249h.825zm-.721-1.302v1.551h-.32v-1.551h.32zm.614.632v.243h-.718v-.243h.718zm.106-.632v.25h-.825v-.25h.825zm.188 0h.578c.119 0 .221.018.306.053.086.036.152.088.198.158s.069.155.069.257c0 .083-.014.155-.043.214s-.068.109-.117.147l-.001.001a.618.618 0 0 1-.174.093l-.004.001-.101.053H31.1l-.002-.249h.385a.29.29 0 0 0 .131-.031l-.002.001a.199.199 0 0 0 .083-.082v-.001a.254.254 0 0 0 .029-.118V21.035a.281.281 0 0 0-.028-.123l.001.002a.188.188 0 0 0-.083-.082h-.001a.315.315 0 0 0-.132-.029h-.269v1.301h-.319v-1.551zm.867 1.551-.353-.692.337-.002.358.679v.015h-.342zm1.678-.553h-.395V21.3H33.45c.05 0 .096-.011.138-.031l-.002.001a.2.2 0 0 0 .084-.084l.001-.001a.319.319 0 0 0-.001-.254l.001.002a.214.214 0 0 0-.083-.095l-.001-.001a.272.272 0 0 0-.137-.037h-.012.001-.285v1.301h-.32V20.55h.604c.121 0 .225.022.312.066a.468.468 0 0 1 .269.443c0 .1-.023.187-.069.26s-.113.13-.2.169a.744.744 0 0 1-.313.06zm1.843.304v.249h-.825v-.249h.825zm-.721-1.302v1.551h-.32v-1.551h.32zm.613.632v.243h-.718v-.243h.718zm.107-.632v.25h-.824v-.25h.824zm.902 0v1.551h-.319v-1.551h.319zm.478 0v.25h-1.265v-.25h1.265zm1.222 1.302v.249h-.825v-.249h.825zm-.721-1.302v1.551h-.32v-1.551h.32zm.614.632v.243h-.718v-.243h.718zm.106-.632v.25h-.824v-.25h.824zm.188 0h.579c.119 0 .22.018.306.053s.152.088.198.158.069.155.069.257c0 .083-.014.155-.043.214s-.068.109-.117.147l-.001.001a.618.618 0 0 1-.174.093l-.004.001-.101.053h-.503l-.002-.249h.385a.283.283 0 0 0 .13-.031l-.002.001a.199.199 0 0 0 .083-.082l.001-.001a.254.254 0 0 0 .029-.118V21.035a.281.281 0 0 0-.028-.123l.001.002a.188.188 0 0 0-.083-.082h-.001a.31.31 0 0 0-.131-.029h-.269v1.301h-.32v-1.551zm.867 1.551-.354-.692.338-.002.358.679v.015h-.342zm1.338-.406v-.004a.214.214 0 0 0-.013-.072v.001a.147.147 0 0 0-.044-.062.374.374 0 0 0-.09-.055l-.002-.001a1.134 1.134 0 0 0-.145-.055l-.009-.002a1.682 1.682 0 0 1-.212-.082l.012.005a.888.888 0 0 1-.168-.1l.002.001a.452.452 0 0 1-.112-.131l-.001-.002a.356.356 0 0 1-.04-.168v-.008c0-.065.014-.123.043-.176a.42.42 0 0 1 .118-.136l.001-.001a.567.567 0 0 1 .181-.089.79.79 0 0 1 .223-.031h.008c.114 0 .214.021.299.062s.151.098.198.169a.433.433 0 0 1 .071.246h-.317v-.006a.245.245 0 0 0-.029-.115l.001.001a.195.195 0 0 0-.084-.082h-.001a.298.298 0 0 0-.132-.03h-.012.001-.011a.332.332 0 0 0-.13.026l.002-.001a.188.188 0 0 0-.083.067v.001a.166.166 0 0 0-.028.091v.003c0 .026.006.05.019.071a.207.207 0 0 0 .059.059h.001c.026.019.059.036.097.052s.083.032.133.048c.085.025.159.054.223.086s.119.068.162.108.076.085.098.135a.429.429 0 0 1 .033.172.372.372 0 0 1-.152.316l-.001.001a.528.528 0 0 1-.174.083l-.004.001a.869.869 0 0 1-.458-.001.692.692 0 0 1-.206-.094l.002.002a.473.473 0 0 1-.144-.155l-.001-.002a.452.452 0 0 1-.054-.216v-.012.001h.321c0 .048.007.089.022.123s.036.06.062.08c.028.02.061.036.096.044h.002c.038.009.08.014.125.014h.012a.349.349 0 0 0 .126-.024l-.002.001a.169.169 0 0 0 .107-.156v-.003z"/></symbol><symbol id="icon-Client-3" viewBox="0 0 61 32"><path d="M25.022 23.717c.006 0 .012.001.017.004l.015.008.08.076a.676.676 0 0 1-.221.142l-.005.002a.89.89 0 0 1-.32.051h-.016a.876.876 0 0 1-.291-.05l.006.002a.664.664 0 0 1-.227-.136.607.607 0 0 1-.145-.205l-.002-.004a.686.686 0 0 1-.051-.261v-.017c0-.094.02-.184.057-.265l-.002.004a.626.626 0 0 1 .155-.209.726.726 0 0 1 .236-.135l.005-.002a.958.958 0 0 1 .3-.048h.011-.001a.85.85 0 0 1 .288.044c.08.03.153.071.216.121l-.067.081a.046.046 0 0 1-.017.014.046.046 0 0 1-.023.006h-.004a.066.066 0 0 1-.029-.009l-.036-.021-.05-.027a.573.573 0 0 0-.155-.048h-.003a.748.748 0 0 0-.11-.008h-.011.001-.008a.668.668 0 0 0-.22.037l.005-.001a.508.508 0 0 0-.175.102h.001a.463.463 0 0 0-.113.161.526.526 0 0 0-.041.206v.015a.53.53 0 0 0 .043.211l-.001-.004a.46.46 0 0 0 .275.259l.003.001a.6.6 0 0 0 .207.034.846.846 0 0 0 .123-.007.486.486 0 0 0 .266-.111l-.001.001a.07.07 0 0 1 .038-.014zm2.318-.379a.65.65 0 0 1-.054.267.584.584 0 0 1-.151.207l-.001.001a.713.713 0 0 1-.237.136.985.985 0 0 1-.617-.002l.007.002a.712.712 0 0 1-.237-.137l.001.001a.61.61 0 0 1-.151-.205l-.002-.004a.68.68 0 0 1 .002-.539l-.002.004a.634.634 0 0 1 .153-.21.707.707 0 0 1 .236-.131.978.978 0 0 1 .61 0c.089.031.17.077.237.136a.612.612 0 0 1 .206.459v.017-.001zm-.211 0a.552.552 0 0 0-.038-.215.443.443 0 0 0-.274-.261l-.003-.001a.712.712 0 0 0-.449.002l.005-.001a.477.477 0 0 0-.17.102.423.423 0 0 0-.107.157l-.001.003a.62.62 0 0 0 0 .429.449.449 0 0 0 .278.26c.143.046.3.046.444 0a.463.463 0 0 0 .169-.1.458.458 0 0 0 .108-.16.549.549 0 0 0 .038-.215zm1.794.225.021.048.023-.048c.008-.016.016-.032.026-.047l.513-.796c.01-.014.019-.023.029-.025s.022-.004.034-.004h.16v1.296h-.18v-.993l-.001-.022.001-.023v.001l-.516.808a.065.065 0 0 1-.03.029.089.089 0 0 1-.043.011H28.929a.093.093 0 0 1-.044-.011.076.076 0 0 1-.03-.029l-.531-.813v1.04h-.174v-1.293h.158c.013 0 .025.002.036.005h-.001a.06.06 0 0 1 .028.024l.524.797c.011.015.019.03.027.047zm1.93-.064v.485h-.201V22.69h.447a.994.994 0 0 1 .25.028.518.518 0 0 1 .177.08.326.326 0 0 1 .099.125l.001.002a.382.382 0 0 1 .034.165v.006a.357.357 0 0 1-.145.288l-.001.001a.51.51 0 0 1-.175.085l-.004.001a.89.89 0 0 1-.241.03l-.243-.004zm0-.139h.243a.573.573 0 0 0 .155-.02.337.337 0 0 0 .114-.056l-.001.001a.245.245 0 0 0 .092-.192v-.016a.227.227 0 0 0-.021-.094l.001.001a.253.253 0 0 0-.07-.088.436.436 0 0 0-.238-.071l-.033.001h.001-.243v.533zm2.698.626h-.162a.079.079 0 0 1-.041-.012.09.09 0 0 1-.026-.029l-.136-.313H32.5l-.141.313a.07.07 0 0 1-.025.029.078.078 0 0 1-.043.013h-.16l.602-1.296h.209l.61 1.296zm-.994-.481h.566l-.239-.527a.78.78 0 0 1-.044-.116l-.002-.006-.023.068c-.007.021-.015.039-.022.055l-.237.527zm1.861-.809a.1.1 0 0 1 .03.023l.879.977V22.69h.18v1.296H35.403a.096.096 0 0 1-.038-.008h.001a.128.128 0 0 1-.032-.024l-.877-.976.001.022-.001.023v-.001.963h-.18v-1.296h.106c.012 0 .025.001.036.006zm2.567.775v.515h-.201v-.515l-.555-.78h.185c.014 0 .028.004.039.011.011.008.02.018.027.029l.347.504a.618.618 0 0 1 .06.111l.002.004.026-.056a.5.5 0 0 1 .034-.059l.343-.507a.096.096 0 0 1 .026-.027.068.068 0 0 1 .04-.013h.185l-.556.784zm-8.162-2.956c.087.009.176.017.265.024 1.354-.517 2.5-1.365 3.294-2.436s1.201-2.318 1.169-3.585l-1.492-1.275c.303 1.349.161 2.744-.41 4.029s-1.55 2.407-2.826 3.244z"/><path d="m28.29 20.456.04.007c1.364-.833 2.404-1.997 2.985-3.341s.677-2.805.276-4.196l-2.126-1.816c.86 1.493 1.206 3.164.998 4.818s-.961 3.225-2.173 4.528zm7.21-4.441c-.361 1.393-1.239 2.649-2.501 3.582-.344.258-.733.5-1.143.708l-.045.021c1.028-.258 1.974-.715 2.763-1.335s1.401-1.386 1.789-2.24l-.862-.736z"/><path d="m35.162 15.81-1.228-1.049c-.024 1.196-.421 2.364-1.152 3.384s-1.768 1.854-3.004 2.416h.006c.275 0 .551-.014.824-.042 1.155-.403 2.175-1.044 2.97-1.865s1.339-1.799 1.584-2.844zm-6.694-5.466-1.464-1.253c-1.309.432-2.435 1.192-3.231 2.18s-1.223 2.159-1.227 3.357c.005 1.325.527 2.611 1.484 3.654s2.293 1.784 3.797 2.105c1.343-1.399 2.13-3.126 2.245-4.932s-.447-3.596-1.604-5.111zm10.077 5.273c-.005-1.572-.739-3.079-2.04-4.19s-3.064-1.738-4.904-1.743h-.016c-.883 0-1.733.145-2.526.412l.056-.016 8.967 7.661a5.042 5.042 0 0 0 .464-2.123z"/></symbol><symbol id="icon-Client-2" viewBox="0 0 61 32"><path d="M29.86 7.976h.003c.092.002.184.007.26.016l.027.002.027.002c.45.033.89.102 1.261.193V7.148a7.762 7.762 0 0 0-1.329-.212c-.17-.013-.352-.021-.537-.026h-.158c-.947.004-1.866.129-2.665.344l-.075.016c-.998.256-1.941.651-2.756 1.135v10.326l-.059.03a11.497 11.497 0 0 1 2.757-1.082l-.082.018c.746-.195 1.52-.319 2.347-.366h.031c.128-.007.256-.01.387-.011v-1.058h-.008a12.171 12.171 0 0 0-2.935.391c-.356.092-.7.192-1.023.303l-.368.125V9.029l.157-.076-.061.027a10.244 10.244 0 0 1 3.885-1.002h-.001l.017-.001.017.001c.146-.007.293-.011.438-.011h.171c.08.001.16.004.223.008h.05zm1.832 1.064c.231.018.47.026.712.026a11.471 11.471 0 0 0 2.885-.378l-.08.018a11.522 11.522 0 0 0 2.757-1.082l-.06.03v10.142c-.815.484-1.758.879-2.756 1.135l-.075.016c-.8.214-1.718.339-2.666.343h-.068c-.695 0-1.37-.087-2.014-.251l.056.012V8.843a8.518 8.518 0 0 0 1.309.196zm5.161.079-.368.124c-.338.114-.68.216-1.023.306-.916.245-1.969.388-3.054.392h-.002c-.24 0-.461-.007-.674-.02l-.293-.019v8.283l.252.022c.233.021.475.031.717.031a9.8 9.8 0 0 0 2.476-.327l-.068.015a9.975 9.975 0 0 0 1.941-.703l-.06.026.157-.076V9.119zM24.632 22.259a.542.542 0 0 0-.39-.166h-.02.001-.008a.596.596 0 0 0-.232.046l.004-.001a.534.534 0 0 0-.301.303l-.001.004a.595.595 0 0 0-.042.228v1.38a.64.64 0 0 0 .054.283.489.489 0 0 0 .327.283.758.758 0 0 0 .206.028.583.583 0 0 0 .572-.581v-.154h-.361v.131a.324.324 0 0 1-.022.117l.001-.002a.232.232 0 0 1-.052.078.253.253 0 0 1-.151.053l-.021.001a.182.182 0 0 1-.148-.075.328.328 0 0 1-.048-.171v-.015.001-1.287a.445.445 0 0 1 .044-.206.185.185 0 0 1 .155-.085l.022.001h-.001.007c.063 0 .119.03.154.077.037.049.06.11.06.177v.127h.357v-.147a.637.637 0 0 0-.046-.24l.002.004a.56.56 0 0 0-.121-.194zm2.142-.015a.635.635 0 0 0-.41-.152.606.606 0 0 0-.544.341l-.001.004a.643.643 0 0 0-.053.267v1.323a.649.649 0 0 0 .053.271.54.54 0 0 0 .14.185c.055.051.12.091.191.116a.618.618 0 0 0 .626-.117l-.001.001a.576.576 0 0 0 .188-.456v-1.335a.639.639 0 0 0-.054-.259l.002.004a.586.586 0 0 0-.136-.193zm-.168 1.783.001.02a.24.24 0 0 1-.072.171.266.266 0 0 1-.34 0 .236.236 0 0 1-.073-.17l.001-.022v.001-1.323l-.001-.02a.24.24 0 0 1 .072-.171.266.266 0 0 1 .34 0 .236.236 0 0 1 .073.171l-.001.021v-.001 1.324zm2.982.591v-2.505h-.347l-.456 1.326h-.006l-.459-1.326h-.343v2.505h.358v-1.524h.006l.351 1.077h.179l.353-1.077h.007v1.524h.358zm2.033-2.329a.498.498 0 0 0-.202-.137.769.769 0 0 0-.246-.039h-.545v2.505h.357v-.979h.184a.663.663 0 0 0 .322-.068.528.528 0 0 0 .195-.189l.001-.002a.614.614 0 0 0 .082-.218c.012-.079.019-.17.019-.262v-.024.001a1.39 1.39 0 0 0-.035-.358.527.527 0 0 0-.132-.23zm-.184.763a.318.318 0 0 1-.034.132l.001-.002a.201.201 0 0 1-.091.087l-.001.001a.366.366 0 0 1-.15.032h-.019.001-.163v-.852h.201a.34.34 0 0 1 .146.033l-.002-.001a.198.198 0 0 1 .083.091l.001.001c.02.044.03.092.031.14v.167c0 .058.004.119 0 .172h-.004zm1.875-.939h-.293l-.552 2.505h.357l.105-.538h.487l.105.538h.357l-.565-2.505zm-.329 1.626.176-.908h.007l.175.908h-.357zm2.635-.117h-.007l-.539-1.509h-.343v2.505h.357v-1.507h.007l.545 1.506h.336v-2.505h-.357v1.509zm2.181-1.509-.287.996h-.007l-.287-.996h-.378l.49 1.447v1.059h.357V23.56l.49-1.446h-.378zm-14.163 3.212h.172v.483h.117v-.483h.171v-.099h-.46v.099zm1.447-.099-.225.582h.124l.048-.132h.232l.049.132h.127l-.231-.582h-.124zm-.019.352.079-.216.079.216h-.158zm1.448.015h.135v.075a.223.223 0 0 1-.138.049h-.008a.146.146 0 0 1-.115-.056.244.244 0 0 1-.043-.139v-.014.001c0-.129.056-.194.167-.194l.013-.001c.057 0 .105.039.119.093v.001l.115-.022c-.025-.114-.107-.171-.247-.171h-.008a.287.287 0 0 0-.195.075.282.282 0 0 0-.084.202l.001.023v-.001.014c0 .078.028.15.075.205a.28.28 0 0 0 .203.086l.019-.001h-.001.01a.347.347 0 0 0 .237-.093v-.229h-.252v.098zm1.46-.367h-.118v.582h.407v-.099h-.289v-.483zm1.234 0h-.117v.582h.117v-.582zm1.207.389-.238-.388h-.114v.582h.109v-.38l.234.38h.117v-.582h-.108v.389zm1.091-.063h.29v-.099h-.29v-.127h.312v-.099h-.429v.582h.441v-.099h-.324v-.157zm2.646-.096h-.229v-.229h-.116v.581h.116v-.255h.229v.255h.117v-.582h-.117v.229zm1.097.096h.291v-.099h-.291v-.127h.313v-.099h-.429v.582h.441v-.099h-.324v-.157zm1.489 0c.101-.016.153-.069.153-.162l.001-.017a.138.138 0 0 0-.058-.112.325.325 0 0 0-.147-.035l-.024.001h.001-.247v.581h.117v-.243h.032a.15.15 0 0 1 .064.014h-.001a.12.12 0 0 1 .041.043l.127.185h.14l-.071-.113a.405.405 0 0 0-.127-.139l-.001-.001zm-.118-.081h-.086v-.146h.092l.025-.001c.034 0 .066.005.096.015l-.002-.001a.076.076 0 0 1 .025.057.074.074 0 0 1-.009.036.076.076 0 0 1-.022.025.334.334 0 0 1-.097.015l-.023-.001h.001zm1.24.081h.289v-.099h-.289v-.127h.313v-.099h-.431v.582h.441v-.099h-.324v-.157z"/></symbol><symbol id="icon-Client-1" viewBox="0 0 61 32"><path d="m25.455 8.364 2.548 2.428-4.73-.002v11.778h12.364v-4.503l2.545 2.425V8.365H25.455zm10.069 9.415-7.225-6.884h7.225v6.884zm-2.243 3.065h-8.052v-7.921h.569v7.385h7.483v.537zm-6.446 3.905.3-.617h.247l-.435.817v.476h-.224v-.476l-.435-.817h.248l.3.617zm1.106-.617h.053l.488 1.293h-.234l-.105-.303h-.5l-.104.303h-.233l.487-1.293h.149zm-.237.814h.379l-.189-.548-.189.548zm1.562-.215-.022-.028-.006-.008a.635.635 0 0 1-.076-.123l-.002-.004a.355.355 0 0 1 .014-.302.267.267 0 0 1 .117-.111l.002-.001a.377.377 0 0 1 .178-.04c.066 0 .123.013.17.04a.278.278 0 0 1 .126.359l.001-.002a.336.336 0 0 1-.062.093.647.647 0 0 1-.088.078l-.002.001-.09.065.256.302a.506.506 0 0 0 .056-.232v-.01h.185a.784.784 0 0 1-.019.178.546.546 0 0 1-.096.215l.001-.002.189.224h-.247l-.075-.088a.523.523 0 0 1-.129.072l-.003.001a.584.584 0 0 1-.196.033h-.005a.499.499 0 0 1-.223-.047.36.36 0 0 1-.145-.128l-.001-.001a.349.349 0 0 1-.051-.183v-.006c0-.053.011-.099.033-.138a.427.427 0 0 1 .09-.112c.035-.032.075-.064.12-.095zm.106.13-.027.019a.319.319 0 0 0-.069.073l-.001.001a.212.212 0 0 0-.011.22l-.001-.001a.185.185 0 0 0 .071.073h.001a.231.231 0 0 0 .109.027h.008a.329.329 0 0 0 .209-.074l-.001.001-.287-.338zm.051-.236.079-.053a.273.273 0 0 0 .079-.072l.001-.001a.16.16 0 0 0 .024-.085v-.006a.13.13 0 0 0-.129-.125h-.012a.13.13 0 0 0-.119.076v.001a.177.177 0 0 0-.015.073c0 .031.008.06.021.086v-.001a.473.473 0 0 0 .056.088l.015.019zm2.262.379h-.222a.407.407 0 0 1-.042.145l.001-.002a.197.197 0 0 1-.089.087l-.001.001a.334.334 0 0 1-.14.03h-.014.001-.007a.276.276 0 0 1-.128-.032l.001.001a.265.265 0 0 1-.092-.087l-.001-.001a.436.436 0 0 1-.053-.133v-.003a.826.826 0 0 1-.017-.171v-.116c0-.069.006-.13.019-.183s.032-.099.057-.136a.255.255 0 0 1 .093-.083l.001-.001a.288.288 0 0 1 .126-.028h.008c.062 0 .112.011.151.032s.067.051.087.091c.02.039.033.087.039.143h.222a.556.556 0 0 0-.074-.232l.001.003a.414.414 0 0 0-.163-.156l-.002-.001a.541.541 0 0 0-.244-.057h-.018.001c-.081 0-.154.014-.219.043s-.12.069-.166.124a.543.543 0 0 0-.105.188l-.001.004a.825.825 0 0 0-.036.252v.108c0 .093.012.177.036.252s.059.139.105.193a.476.476 0 0 0 .38.166c.104 0 .193-.019.265-.057s.129-.09.169-.156a.514.514 0 0 0 .071-.226zm1.233-.19v-.071a.815.815 0 0 0-.039-.262.576.576 0 0 0-.11-.199l.001.001a.465.465 0 0 0-.167-.124l-.003-.001a.53.53 0 0 0-.218-.044.526.526 0 0 0-.217.044c-.065.028-.122.07-.17.125s-.084.121-.11.198a.799.799 0 0 0-.039.25v.012-.001.071c0 .098.013.185.039.263a.615.615 0 0 0 .112.199l-.001-.001c.048.055.105.096.17.125s.138.043.217.043a.484.484 0 0 0 .387-.168.557.557 0 0 0 .109-.198.852.852 0 0 0 .038-.263zm-.223-.073v.073a.795.795 0 0 1-.021.192.418.418 0 0 1-.061.143l.001-.002a.27.27 0 0 1-.096.085l-.001.001a.291.291 0 0 1-.126.028h-.012a.29.29 0 0 1-.128-.029l.002.001a.291.291 0 0 1-.099-.085l-.001-.001a.423.423 0 0 1-.062-.138l-.001-.003a.744.744 0 0 1-.022-.182v-.011.001-.073c0-.072.007-.136.021-.191s.035-.102.061-.139a.253.253 0 0 1 .097-.084l.002-.001a.276.276 0 0 1 .127-.029h.005c.049 0 .093.01.132.029s.072.047.098.085a.386.386 0 0 1 .061.139.735.735 0 0 1 .021.191z"/></symbol><symbol id="icon-Vector-4" viewBox="0 0 30 32"><path d="m29.773 22.098-8.443-8.505.937-4.615c.242.094.499.143.759.145h.032a2.16 2.16 0 1 0-2.029-1.42l-.005-.015-4.96.605L7.973.16A.53.53 0 0 0 7.597 0a.536.536 0 0 0-.373.155L5.711 1.659a.53.53 0 0 0 0 .754l.814.825C5.382 5.3 4.709 7.76 4.709 10.377c0 4.106 1.656 7.825 4.336 10.526l-.001-.001A.506.506 0 0 0 9.19 21a2.986 2.986 0 0 0-.052.546v6.188h-6.4A2.669 2.669 0 0 0 .071 30.4v1.067c.001.295.24.533.534.533h24.534a.535.535 0 0 0 .534-.534v-1.067a2.67 2.67 0 0 0-2.667-2.666h-6.4v-2.742a14.784 14.784 0 0 0 10.166-1.502l-.077.039.819.823a.534.534 0 0 0 .377.16.532.532 0 0 0 .373-.155l1.512-1.505a.535.535 0 0 0 0-.754zM22.28 6.233a1.067 1.067 0 1 1 .752 1.822h-.003a1.066 1.066 0 0 1-.746-1.822h-.002zm-1.256 3.505-.599 2.945-1.175-1.182 1.774-1.764zm-.605-.902-1.92 1.909-1.485-1.493 3.405-.415zM23.004 28.8a1.6 1.6 0 0 1 1.6 1.6v.534H1.138V30.4a1.6 1.6 0 0 1 1.6-1.6h20.267zm-7.467-2.134v1.067h-5.333v-1.067h5.334zM10.204 25.6v-4.053c0-1.294 1.197-2.346 2.666-2.346s2.667 1.053 2.667 2.346V25.6h-5.333zm6.4-1.696v-2.357c0-1.882-1.675-3.413-3.733-3.413h-.059c-1.353 0-2.54.707-3.213 1.771l-.009.016a13.816 13.816 0 0 1-3.811-9.549c0-2.314.567-4.496 1.569-6.414l-.036.077 18.602 18.709c-1.823.947-3.98 1.502-6.266 1.502-1.079 0-2.128-.124-3.136-.357l.093.018zm11.289-.683L6.836 2.041l.755-.752 7.935 7.98c.004 0 .005.007.009.009l13.114 13.191-.757.752z"/></symbol><symbol id="icon-Vector-3" viewBox="0 0 41 32"><path d="M2.047 31.732H34.799c1.13 0 2.047-.916 2.047-2.047v-2.73c0-1.13-.916-2.047-2.047-2.047h-.683V7.892l3.876-3.671a2.057 2.057 0 1 0-.95-.964l-.005-.012-2.92 2.768V4.439c0-1.13-.916-2.047-2.047-2.047H4.777c-1.13 0-2.047.916-2.047 2.047v20.469h-.682c-1.13 0-2.047.916-2.047 2.047v2.731c0 1.13.916 2.047 2.047 2.047zM38.892 1.711a.683.683 0 0 1 0 1.366.683.683 0 0 1 0-1.366zM4.094 4.44a.68.68 0 0 1 .682-.682h27.292c.377 0 .682.305.682.682v2.865l-1.364 1.297V5.805a.682.682 0 0 0-.682-.682H6.141a.682.682 0 0 0-.682.682v17.057c0 .378.305.683.682.683h24.563a.682.682 0 0 0 .682-.683V10.479l1.364-1.293v15.722H4.093V4.44zm6.141 8.87h-.006a2.047 2.047 0 1 0 1.423 3.518l-.001.001 2.372 1.19c.275.138.61.073.815-.157l5.041-5.672 4.956 3.714a.682.682 0 0 0 .878-.051l4.307-4.08v10.408H6.823V6.488h23.199v3.405l-4.828 4.572-4.998-3.747a.679.679 0 0 0-.918.092l-.001.001-5.111 5.75-1.911-.956c.014-.082.023-.164.026-.248 0-1.13-.916-2.046-2.047-2.047zm.682 2.047a.683.683 0 0 1-1.366 0 .683.683 0 0 1 1.366 0zm4.094 10.917h6.823v.682a.682.682 0 0 1-.682.682h-5.459a.682.682 0 0 1-.682-.682v-.682zm-13.647.683c0-.377.306-.682.682-.682h11.599v.683c0 1.13.916 2.047 2.047 2.047h5.459c1.13 0 2.047-.916 2.047-2.047v-.683h11.598c.378 0 .683.305.683.682v2.73a.683.683 0 0 1-.683.682H2.046a.682.682 0 0 1-.682-.682v-2.73z"/></symbol><symbol id="icon-Vector-2" viewBox="0 0 31 32"><path d="M30.797 15.301C30.795 6.849 23.942-.002 15.489 0S.186 6.855.188 15.308C.19 22.096 4.61 27.851 10.729 29.853l.108.031a.67.67 0 0 0 .529-.064.642.642 0 0 0 .284-.357l3.865-12.25a1.913 1.913 0 1 0-.851-3.63l.011-.005-5.106-5.107a.637.637 0 1 0-.902.902l5.104 5.109a1.873 1.873 0 0 0 .532 2.306l.004.003-3.683 11.673C3.346 25.783-.381 17.71 2.301 10.432 4.982 3.155 13.056-.573 20.333 2.109s11.004 10.755 8.323 18.032c-1.345 3.581-4.004 6.406-7.374 7.938l-.088.036-.398-1.875a.638.638 0 0 0-1.049-.343l.001-.001-3.837 3.425a.639.639 0 0 0 .227 1.084l.005.001 4.898 1.564a.637.637 0 0 0 .818-.743l.001.004-.391-1.839c5.528-2.374 9.329-7.772 9.329-14.057v-.034.002zm-15.305-.637a.638.638 0 0 1 0 1.276.638.638 0 0 1 0-1.276zm2.101 14.863 2.184-1.948.603 2.84-2.787-.892z"/></symbol><symbol id="icon-astronaut-1" viewBox="0 0 32 32"><path fill="#4d5ae5" d="M31.974 4.524a.535.535 0 0 0-.427-.362h-.003l-1.911-.278-.855-1.731c-.179-.365-.776-.365-.956 0l-.855 1.731-1.91.278a.534.534 0 0 0-.296.909l1.383 1.348-.326 1.903a.533.533 0 0 0 .774.561l1.709-.899 1.709.899a.534.534 0 0 0 .773-.565v.003l-.326-1.903L31.84 5.07a.535.535 0 0 0 .134-.55l.001.004zm-2.463 1.327a.534.534 0 0 0-.153.472l.191 1.114-1-.526a.524.524 0 0 0-.499.001l.003-.001-1 .526.191-1.114a.53.53 0 0 0-.153-.472l-.81-.79 1.119-.162a.533.533 0 0 0 .401-.292l.5-1.013.501 1.013a.535.535 0 0 0 .402.292l1.119.162-.809.79zm-3.377 14.671h-1.067v1.067h1.067v-1.067zm0 2.133h-1.067v1.067h1.067v-1.067z" style="fill:var(--color3, #4d5ae5)"/><path fill="#4d5ae5" d="M27.2 21.589h-1.067v1.067H27.2v-1.067zm-2.133 0H24v1.067h1.067v-1.067zm-2.667 4.8h-1.067v1.067H22.4v-1.067zm0 2.134h-1.067v1.067H22.4v-1.067zm1.067-1.067H22.4v1.067h1.067v-1.067zM21.334 27.456h-1.067v1.067h1.067v-1.067zM16 24.256h-1.066v1.067H16v-1.067zm0 2.133h-1.066v1.067H16v-1.067zm1.067-1.066H16v1.067h1.067v-1.067zm-2.133 0h-1.067v1.067h1.067v-1.067zM5.867 6.122H4.801v1.066h1.066V6.122zm0 2.133H4.801v1.067h1.066V8.256zm1.066-1.066H5.867v1.067h1.066V7.189zm-2.133 0H3.733v1.067H4.8V7.189z" style="fill:var(--color3, #4d5ae5)"/><path fill="#2e2f42" d="M24.715 14.159a1.778 1.778 0 0 0-1.179-.704l-.009-.001a1.764 1.764 0 0 0-1.344.356l.004-.003-1.252.96-1.898 1.417-1.358-.541c2.421-1.086 4.114-3.508 4.114-6.32 0-3.823-3.122-6.933-6.961-6.933S7.87 5.5 7.87 9.323a6.86 6.86 0 0 0 1.12 3.758l-2.769-.024c-.008 0-.015.005-.024.005a.52.52 0 0 0-.155.03c-.013.005-.026.008-.038.014-.006.002-.013.003-.019.007L2.751 14.71l-1.893.911a.429.429 0 0 0-.064.036l.001-.001a1.78 1.78 0 0 0-.593 2.304l-.005-.01c.22.429.595.745 1.056.89a1.772 1.772 0 0 0 1.388-.133l-.009.005 1.388-.738 2.264-1.169 1.357-.008-5.442 5.415-.002.002-1.339 1.333c-.303.299-.49.714-.49 1.173v.005a1.668 1.668 0 0 0 1.669 1.663 1.67 1.67 0 0 0 1.18-.485l1.314-1.308 1.74-1.3.901.897L4.07 27.28c-.303.299-.49.714-.49 1.173v.005a1.669 1.669 0 0 0 1.67 1.664c.428 0 .855-.162 1.18-.485l3.482-3.466.001-.002 1.01-1-.004-.003c.007-.006.015-.009.022-.015l5.166-5.658 3.471.494a.522.522 0 0 0 .266-.035l-.004.001c.017-.006.033-.015.05-.023.019-.009.039-.015.057-.027l3.213-2.134c.012-.008.018-.02.029-.029.012-.01.029-.014.04-.025l1.272-1.192a1.777 1.777 0 0 0 .209-2.366l.003.005zM2.13 17.77a.714.714 0 0 1-.558.052.717.717 0 0 1-.215-1.258l.002-.001 1.314-.632.316.925.133.388-.993.527zm3.498-1.827-1.548.8-.255-.747-.183-.537 2.026-1-.04 1.483zm15.099-6.621a5.79 5.79 0 0 1-.599 2.559l-4.181-1.899a1.86 1.86 0 0 0-.782-1.384l-.006-.004 1.464-4.86c2.378.755 4.105 2.974 4.105 5.587zm-11.789 0c0-3.235 2.644-5.867 5.894-5.867.253 0 .5.022.745.053l-1.432 4.753c-.019 0-.037-.005-.057-.005h-.001a1.872 1.872 0 0 0-1.872 1.866 1.873 1.873 0 0 0 1.872 1.867h.001c.694 0 1.294-.383 1.618-.944l3.863 1.755a5.891 5.891 0 0 1-4.736 2.39c-3.25 0-5.895-2.633-5.895-5.867zm5.957.8c0 .441-.362.8-.806.8h-.002a.804.804 0 0 1-.804-.8c0-.441.361-.8.806-.8s.806.359.806.8zM2.465 25.146a.609.609 0 0 1-.855 0 .591.591 0 0 1 0-.844l.962-.959.851.848-.958.955zm3.213 3.734a.606.606 0 0 1-.855.001.591.591 0 0 1 0-.844l.963-.959.851.848-.96.955zm3.483-3.469-.002.001-1.765 1.76-.851-.848 1.763-1.756.002-.001c.04-.04.065-.088.09-.135.007-.014.02-.026.026-.04.017-.041.019-.085.025-.129.004-.024.014-.047.014-.073 0-.035-.012-.07-.02-.105-.007-.032-.007-.065-.018-.096a.511.511 0 0 0-.091-.137c-.01-.012-.014-.027-.025-.038h-.001l-.001-.002-1.607-1.6c-.017-.017-.039-.024-.058-.038a.491.491 0 0 0-.084-.056l-.003-.001a.477.477 0 0 0-.09-.032l-.003-.001a.502.502 0 0 0-.101-.02h-.022a.49.49 0 0 0-.077.006h.003a.59.59 0 0 0-.108.021l.004-.001a.502.502 0 0 0-.096.046l.002-.001c-.02.011-.043.015-.061.029l-1.774 1.324-.901-.897 2.399-2.386 4.36 4.289-.927.919zm6.818-7.017c-.015-.002-.03.004-.045.003l-.026-.001a.562.562 0 0 0-.092.008h.003a.5.5 0 0 0-.187.069l.002-.001a.554.554 0 0 0-.083.061c-.013.011-.028.017-.04.029l-4.698 5.146-4.328-4.257 2.833-2.818a.535.535 0 0 0-.378-.911h-.001l-2.219.013.027-1.607 3.104.027a6.928 6.928 0 0 0 4.978 2.101h.003c.438 0 .864-.045 1.279-.122.04.032.079.064.13.085l2.409.96.152.758.178.885-3.003-.427zm4.041.179-.314-1.558 1.447-1.08.947 1.257-2.08 1.381zm3.754-2.831-.838.785-.931-1.236.831-.637a.73.73 0 0 1 .543-.143.716.716 0 0 1 .395 1.231z" style="fill:var(--color4, #2e2f42)"/><path fill="#2e2f42" d="m13.602 18.544-2.143-2.134a.53.53 0 0 0-.752 0l-2.143 2.134a.533.533 0 0 0 0 .756l2.143 2.133a.53.53 0 0 0 .752 0l2.143-2.133a.532.532 0 0 0 0-.756zm-2.519 1.759-1.386-1.381 1.386-1.381 1.387 1.381-1.387 1.381zm6.081-15.232-.258 1.035c.071.018 1.738.452 1.738 2.149h1.067c0-2.017-1.666-2.966-2.546-3.185zm2.547 4.251h-1.067v1.067h1.067V9.322z" style="fill:var(--color4, #2e2f42)"/></symbol><symbol id="icon-Vector-1" viewBox="0 0 30 32"><path d="m29.773 22.098-8.443-8.505.937-4.615c.242.094.499.144.758.146h.006a2.159 2.159 0 1 0-2.008-1.435l-4.96.605L7.972.161a.534.534 0 0 0-.377-.16.532.532 0 0 0-.373.155L5.709 1.66a.534.534 0 0 0 0 .754l.814.826a14.943 14.943 0 0 0 2.519 17.663.513.513 0 0 0 .146.098c-.034.18-.051.364-.052.547v6.187h-6.4a2.67 2.67 0 0 0-2.667 2.667v1.067c0 .295.239.533.533.533h24.533a.533.533 0 0 0 .533-.533v-1.067a2.67 2.67 0 0 0-2.667-2.667h-6.4v-2.742a15.09 15.09 0 0 0 3.049.32 14.854 14.854 0 0 0 7.04-1.783l.818.823a.534.534 0 0 0 .377.16.532.532 0 0 0 .373-.155l1.513-1.504a.534.534 0 0 0 0-.754zM22.28 6.233a1.067 1.067 0 1 1 .753 1.822h-.003a1.067 1.067 0 0 1-.747-1.823h-.002zm-1.256 3.505-.598 2.946-1.175-1.182 1.774-1.763zm-.605-.902-1.92 1.909-1.485-1.493 3.405-.415zM23.004 28.8a1.6 1.6 0 0 1 1.6 1.6v.533H1.137V30.4a1.6 1.6 0 0 1 1.6-1.6h20.267zm-7.467-2.133v1.067h-5.333v-1.067h5.333zM10.204 25.6v-4.053c0-1.294 1.196-2.347 2.667-2.347s2.667 1.053 2.667 2.347V25.6h-5.333zm6.4-1.696v-2.357c0-1.882-1.675-3.413-3.733-3.413A3.8 3.8 0 0 0 9.59 19.92 13.87 13.87 0 0 1 7.311 4.033l18.602 18.708a13.818 13.818 0 0 1-9.309 1.163zm11.289-.684L6.836 2.039l.755-.752 7.935 7.98c.004 0 .006.007.01.01l13.115 13.191-.757.752z"/></symbol></defs></svg>